<?xml version="1.0" encoding="utf-8"?>
<!-- Generator: Adobe Illustrator 27.8.1, SVG Export Plug-In . SVG Version: 6.00 Build 0)  -->
<svg version="1.1" id="Layer_1" xmlns="http://www.w3.org/2000/svg" xmlns:xlink="http://www.w3.org/1999/xlink" x="0px" y="0px"
	 viewBox="0 0 252 144" style="enable-background:new 0 0 252 144;" xml:space="preserve">
<style type="text/css">
	.st0{fill:#FFFFFF;}
	.st1{fill:none;stroke:#543963;stroke-width:0.75;stroke-miterlimit:10;}
	.st2{fill:none;stroke:#A34154;stroke-width:0.75;stroke-miterlimit:10;}
	.st3{fill:#2C356B;}
	.st4{font-family:'AvenirNext-Regular';}
	.st5{font-size:24px;}
	.st6{fill:none;}
	.st7{fill:#A34154;}
	.st8{font-size:12px;}
</style>
<g>
	<path class="st0" d="M127.86,22.65c-3.06-0.37-6.18-0.33-9.19,0.16c-3,0.63-5.77,1.85-8.19,3.63c-2.26,2-4.11,4.61-5.48,7.72
		c-1.18,3.28-1.93,7.03-2.24,11.06c-0.19,4.01-0.07,8.19,0.32,12.32c0.39,4.13,0.88,7.78,1.37,10.79c0.39,3,0.69,5.22,0.83,6.58
		c-0.04,1.17-0.28,1.43-0.71,0.76c-0.6-0.86-1.35-2.6-2.17-5.14c-0.9-2.57-1.78-5.8-2.51-9.57c-0.73-3.76-1.13-7.65-1.15-11.43
		c0.1-3.8,0.7-7.39,1.81-10.59c1.3-3.04,3.15-5.64,5.48-7.72c2.49-1.86,5.41-3.23,8.62-4.1c3.21-0.72,6.61-1.05,10.02-1.05
		c3.4,0,6.44,0.2,8.97,0.48c2.51,0.16,4.38,0.31,5.55,0.38c1-0.13,1.23-0.39,0.71-0.76c-0.7-0.56-2.13-1.2-4.21-1.82
		C133.57,23.63,130.92,23.02,127.86,22.65z"/>
	<path class="st1" d="M127.86,22.65c-3.06-0.37-6.18-0.33-9.19,0.16c-3,0.63-5.77,1.85-8.19,3.63c-2.26,2-4.11,4.61-5.48,7.72
		c-1.18,3.28-1.93,7.03-2.24,11.06c-0.19,4.01-0.07,8.19,0.32,12.32c0.39,4.13,0.88,7.78,1.37,10.79c0.39,3,0.69,5.22,0.83,6.58
		c-0.04,1.17-0.28,1.43-0.71,0.76c-0.6-0.86-1.35-2.6-2.17-5.14c-0.9-2.57-1.78-5.8-2.51-9.57c-0.73-3.76-1.13-7.65-1.15-11.43
		c0.1-3.8,0.7-7.39,1.81-10.59c1.3-3.04,3.15-5.64,5.48-7.72c2.49-1.86,5.41-3.23,8.62-4.1c3.21-0.72,6.61-1.05,10.02-1.05
		c3.4,0,6.44,0.2,8.97,0.48c2.51,0.16,4.38,0.31,5.55,0.38c1-0.13,1.23-0.39,0.71-0.76c-0.7-0.56-2.13-1.2-4.21-1.82
		C133.57,23.63,130.92,23.02,127.86,22.65z"/>
</g>
<g>
	<path class="st0" d="M152.3,54.78c0.81,13.71-10.3,24.83-24.83,24.83s-14.05-1.44,1.06-3.22c15.11-1.78,26.23-12.89,24.83-24.83
		C151.96,39.62,151.49,41.06,152.3,54.78z"/>
	<path class="st2" d="M152.3,54.78c0.81,13.71-10.3,24.83-24.83,24.83s-14.05-1.44,1.06-3.22c15.11-1.78,26.23-12.89,24.83-24.83
		C151.96,39.62,151.49,41.06,152.3,54.78z"/>
</g>
<text transform="matrix(1.0277 0 0 1 70.8947 103.9503)" class="st3 st4 st5">ClickCraft</text>
<rect x="127.46" y="51.85" class="st6" width="3.45" height="0"/>
<text transform="matrix(1 0 0 1 103.8396 119.1997)" class="st7 st4 st8">Agency</text>
<g>
	<path class="st0" d="M153.68,33.26c-0.71,3.25-0.31,3.25,0.89,0s-0.85-5.76-4.56-5.59c-3.72,0.17-4.12,0.17-0.89,0
		C152.34,27.51,154.38,30.01,153.68,33.26z"/>
	<path class="st1" d="M153.68,33.26c-0.71,3.25-0.31,3.25,0.89,0s-0.85-5.76-4.56-5.59c-3.72,0.17-4.12,0.17-0.89,0
		C152.34,27.51,154.38,30.01,153.68,33.26z"/>
</g>
</svg>
